<?xml version="1.0" encoding="UTF-8" standalone="no"?>
<!DOCTYPE svg PUBLIC "-//W3C//DTD SVG 1.1//EN" "http://www.w3.org/Graphics/SVG/1.1/DTD/svg11.dtd">
<svg width="400px" height="120px" viewBox="0 0 400 120" version="1.1" xmlns="http://www.w3.org/2000/svg" xmlns:xlink="http://www.w3.org/1999/xlink" xml:space="preserve" xmlns:serif="http://www.serif.com/" style="fill-rule:evenodd;clip-rule:evenodd;stroke-linejoin:round;stroke-miterlimit:2;">
    <g transform="matrix(0.37677,0,0,0.37677,-84.7176,-206.347)">
        <g transform="matrix(400,0,0,400,209.698,875.923)">
            <path d="M0.602,-0.171C0.573,-0.129 0.536,-0.097 0.49,-0.075C0.443,-0.053 0.393,-0.042 0.339,-0.042C0.255,-0.042 0.185,-0.07 0.129,-0.125C0.072,-0.18 0.044,-0.248 0.044,-0.328C0.044,-0.408 0.072,-0.476 0.129,-0.534C0.186,-0.591 0.259,-0.619 0.349,-0.619C0.402,-0.619 0.452,-0.607 0.497,-0.584C0.542,-0.561 0.577,-0.528 0.602,-0.486L0.537,-0.445C0.488,-0.508 0.425,-0.54 0.346,-0.54C0.284,-0.54 0.232,-0.52 0.19,-0.481C0.148,-0.441 0.127,-0.392 0.127,-0.333C0.127,-0.274 0.148,-0.224 0.189,-0.182C0.23,-0.14 0.283,-0.119 0.346,-0.119C0.422,-0.119 0.486,-0.151 0.538,-0.215L0.602,-0.171Z" style="fill-rule:nonzero;"/>
        </g>
        <g transform="matrix(400,0,0,400,373.698,875.923)">
            <path d="M0.328,-0.619C0.407,-0.619 0.474,-0.591 0.529,-0.534C0.584,-0.477 0.611,-0.409 0.611,-0.33C0.611,-0.251 0.584,-0.183 0.53,-0.127C0.475,-0.07 0.408,-0.042 0.328,-0.042C0.248,-0.042 0.181,-0.07 0.126,-0.127C0.071,-0.183 0.044,-0.251 0.044,-0.33C0.044,-0.409 0.071,-0.477 0.127,-0.534C0.182,-0.591 0.249,-0.619 0.328,-0.619ZM0.328,-0.121C0.383,-0.121 0.431,-0.141 0.47,-0.182C0.509,-0.222 0.528,-0.271 0.528,-0.328C0.528,-0.385 0.508,-0.434 0.469,-0.476C0.429,-0.517 0.382,-0.538 0.328,-0.538C0.273,-0.538 0.226,-0.517 0.187,-0.476C0.148,-0.434 0.128,-0.384 0.128,-0.327C0.128,-0.27 0.147,-0.221 0.185,-0.181C0.223,-0.141 0.271,-0.121 0.328,-0.121Z" style="fill:rgb(255,0,32);fill-rule:nonzero;"/>
        </g>
        <g transform="matrix(400,0,0,400,568.098,875.923)">
            <path d="M0.427,-0.794C0.442,-0.794 0.456,-0.789 0.467,-0.778C0.478,-0.767 0.483,-0.753 0.483,-0.738C0.483,-0.723 0.478,-0.709 0.467,-0.699C0.456,-0.688 0.442,-0.682 0.427,-0.682C0.412,-0.682 0.399,-0.688 0.388,-0.699C0.377,-0.709 0.371,-0.723 0.371,-0.738C0.371,-0.753 0.377,-0.767 0.388,-0.778C0.399,-0.789 0.412,-0.794 0.427,-0.794ZM0.228,-0.794C0.243,-0.794 0.257,-0.789 0.268,-0.778C0.279,-0.767 0.284,-0.753 0.284,-0.738C0.284,-0.723 0.279,-0.709 0.268,-0.699C0.257,-0.688 0.243,-0.682 0.228,-0.682C0.213,-0.682 0.2,-0.688 0.189,-0.699C0.178,-0.709 0.172,-0.723 0.172,-0.738C0.172,-0.753 0.178,-0.767 0.189,-0.778C0.2,-0.789 0.213,-0.794 0.228,-0.794ZM0.328,-0.619C0.407,-0.619 0.474,-0.591 0.529,-0.534C0.584,-0.477 0.611,-0.409 0.611,-0.33C0.611,-0.251 0.584,-0.183 0.53,-0.127C0.475,-0.07 0.408,-0.042 0.328,-0.042C0.248,-0.042 0.181,-0.07 0.126,-0.127C0.071,-0.183 0.044,-0.251 0.044,-0.33C0.044,-0.409 0.071,-0.477 0.127,-0.534C0.182,-0.591 0.249,-0.619 0.328,-0.619ZM0.328,-0.121C0.383,-0.121 0.431,-0.141 0.47,-0.182C0.509,-0.222 0.528,-0.271 0.528,-0.328C0.528,-0.385 0.508,-0.434 0.469,-0.476C0.429,-0.517 0.382,-0.538 0.328,-0.538C0.273,-0.538 0.226,-0.517 0.187,-0.476C0.148,-0.434 0.128,-0.384 0.128,-0.327C0.128,-0.27 0.147,-0.221 0.185,-0.181C0.223,-0.141 0.271,-0.121 0.328,-0.121Z" style="fill:rgb(255,0,32);fill-rule:nonzero;"/>
        </g>
        <g transform="matrix(400,0,0,400,765.698,875.923)">
            <path d="M0.32,-0.533L0.212,-0.533L0.212,-0.151C0.212,-0.137 0.214,-0.129 0.218,-0.126C0.222,-0.123 0.232,-0.121 0.248,-0.121L0.296,-0.121L0.296,-0.05C0.264,-0.045 0.24,-0.042 0.223,-0.042C0.191,-0.042 0.167,-0.05 0.152,-0.066C0.137,-0.081 0.129,-0.106 0.129,-0.14L0.129,-0.533L0.035,-0.533L0.035,-0.605L0.129,-0.605L0.129,-0.81L0.212,-0.81L0.212,-0.605L0.32,-0.605L0.32,-0.533Z" style="fill-rule:nonzero;"/>
        </g>
        <g transform="matrix(400,0,0,400,844.098,875.923)">
            <path d="M0.328,-0.619C0.407,-0.619 0.474,-0.591 0.529,-0.534C0.584,-0.477 0.611,-0.409 0.611,-0.33C0.611,-0.251 0.584,-0.183 0.53,-0.127C0.475,-0.07 0.408,-0.042 0.328,-0.042C0.248,-0.042 0.181,-0.07 0.126,-0.127C0.071,-0.183 0.044,-0.251 0.044,-0.33C0.044,-0.409 0.071,-0.477 0.127,-0.534C0.182,-0.591 0.249,-0.619 0.328,-0.619ZM0.328,-0.121C0.383,-0.121 0.431,-0.141 0.47,-0.182C0.509,-0.222 0.528,-0.271 0.528,-0.328C0.528,-0.385 0.508,-0.434 0.469,-0.476C0.429,-0.517 0.382,-0.538 0.328,-0.538C0.273,-0.538 0.226,-0.517 0.187,-0.476C0.148,-0.434 0.128,-0.384 0.128,-0.327C0.128,-0.27 0.147,-0.221 0.185,-0.181C0.223,-0.141 0.271,-0.121 0.328,-0.121Z" style="fill:rgb(255,6,0);fill-rule:nonzero;"/>
        </g>
        <g transform="matrix(400,0,0,400,1038.5,875.923)">
            <path d="M0.328,-0.619C0.407,-0.619 0.474,-0.591 0.529,-0.534C0.584,-0.477 0.611,-0.409 0.611,-0.33C0.611,-0.251 0.584,-0.183 0.53,-0.127C0.475,-0.07 0.408,-0.042 0.328,-0.042C0.248,-0.042 0.181,-0.07 0.126,-0.127C0.071,-0.183 0.044,-0.251 0.044,-0.33C0.044,-0.409 0.071,-0.477 0.127,-0.534C0.182,-0.591 0.249,-0.619 0.328,-0.619ZM0.328,-0.121C0.383,-0.121 0.431,-0.141 0.47,-0.182C0.509,-0.222 0.528,-0.271 0.528,-0.328C0.528,-0.385 0.508,-0.434 0.469,-0.476C0.429,-0.517 0.382,-0.538 0.328,-0.538C0.273,-0.538 0.226,-0.517 0.187,-0.476C0.148,-0.434 0.128,-0.384 0.128,-0.327C0.128,-0.27 0.147,-0.221 0.185,-0.181C0.223,-0.141 0.271,-0.121 0.328,-0.121Z" style="fill:rgb(255,6,0);fill-rule:nonzero;"/>
        </g>
    </g>
</svg>
