<?xml version="1.0" encoding="UTF-8" standalone="no"?><!DOCTYPE svg PUBLIC "-//W3C//DTD SVG 1.1//EN" "http://www.w3.org/Graphics/SVG/1.1/DTD/svg11.dtd"><svg width="119px" height="27px" viewBox="0 0 119 27" version="1.1" xmlns="http://www.w3.org/2000/svg" xmlns:xlink="http://www.w3.org/1999/xlink" xml:space="preserve" xmlns:serif="http://www.serif.com/" style="fill-rule:evenodd;clip-rule:evenodd;stroke-linejoin:round;stroke-miterlimit:2;"><g id="Marshmello_landing-page"><g id="Simple_landngpage"><g id="Group-2"><path id="Simple" d="M46.05,22.25c-1.5,0 -2.783,-0.225 -3.85,-0.675c-1.067,-0.45 -1.875,-1.042 -2.425,-1.775c-0.55,-0.733 -0.842,-1.533 -0.875,-2.4c-0,-0.133 0.05,-0.254 0.15,-0.363c0.1,-0.108 0.225,-0.162 0.375,-0.162l2.275,-0c0.183,-0 0.333,0.042 0.45,0.125c0.117,0.083 0.225,0.2 0.325,0.35c0.167,0.567 0.546,1.042 1.137,1.425c0.592,0.383 1.405,0.575 2.438,0.575c1.167,-0 2.046,-0.196 2.637,-0.588c0.592,-0.391 0.888,-0.929 0.888,-1.612c-0,-0.45 -0.15,-0.825 -0.45,-1.125c-0.3,-0.3 -0.754,-0.562 -1.363,-0.788c-0.608,-0.225 -1.512,-0.495 -2.712,-0.812c-1.967,-0.467 -3.408,-1.083 -4.325,-1.85c-0.917,-0.767 -1.375,-1.867 -1.375,-3.3c0,-0.967 0.267,-1.829 0.8,-2.588c0.533,-0.758 1.296,-1.354 2.288,-1.787c0.991,-0.433 2.145,-0.65 3.462,-0.65c1.383,-0 2.579,0.242 3.587,0.725c1.009,0.483 1.775,1.087 2.3,1.812c0.526,0.726 0.805,1.446 0.838,2.163c-0,0.133 -0.05,0.254 -0.15,0.362c-0.1,0.109 -0.225,0.163 -0.375,0.163l-2.375,-0c-0.367,-0 -0.617,-0.15 -0.75,-0.45c-0.083,-0.533 -0.408,-0.979 -0.975,-1.338c-0.567,-0.358 -1.267,-0.537 -2.1,-0.537c-0.917,-0 -1.637,0.175 -2.163,0.525c-0.525,0.35 -0.787,0.858 -0.787,1.525c-0,0.45 0.133,0.825 0.4,1.125c0.267,0.3 0.683,0.562 1.25,0.787c0.567,0.226 1.392,0.48 2.475,0.763c1.483,0.333 2.662,0.708 3.537,1.125c0.876,0.417 1.521,0.942 1.938,1.575c0.417,0.633 0.625,1.442 0.625,2.425c-0,1.083 -0.296,2.021 -0.888,2.812c-0.591,0.792 -1.424,1.396 -2.5,1.813c-1.075,0.417 -2.32,0.625 -3.737,0.625Zm10.175,-15.375c-0.167,-0 -0.308,-0.058 -0.425,-0.175c-0.117,-0.117 -0.175,-0.258 -0.175,-0.425l-0,-1.825c-0,-0.183 0.058,-0.333 0.175,-0.45c0.117,-0.117 0.258,-0.175 0.425,-0.175l2.3,-0c0.183,-0 0.333,0.058 0.45,0.175c0.117,0.117 0.175,0.267 0.175,0.45l-0,1.825c-0,0.167 -0.062,0.308 -0.188,0.425c-0.125,0.117 -0.27,0.175 -0.437,0.175l-2.3,-0Zm0.1,15.125c-0.167,-0 -0.308,-0.058 -0.425,-0.175c-0.117,-0.117 -0.175,-0.258 -0.175,-0.425l-0,-11.8c-0,-0.183 0.058,-0.329 0.175,-0.438c0.117,-0.108 0.258,-0.162 0.425,-0.162l2.125,-0c0.167,-0 0.308,0.058 0.425,0.175c0.117,0.117 0.175,0.258 0.175,0.425l-0,11.8c-0,0.167 -0.058,0.308 -0.175,0.425c-0.117,0.117 -0.258,0.175 -0.425,0.175l-2.125,-0Zm6.625,-0c-0.167,-0 -0.308,-0.058 -0.425,-0.175c-0.117,-0.117 -0.175,-0.258 -0.175,-0.425l-0,-11.8c-0,-0.183 0.058,-0.329 0.175,-0.438c0.117,-0.108 0.258,-0.162 0.425,-0.162l1.975,-0c0.183,-0 0.329,0.054 0.437,0.162c0.109,0.109 0.163,0.255 0.163,0.438l0,0.85c0.9,-1.133 2.108,-1.7 3.625,-1.7c1.85,-0 3.142,0.742 3.875,2.225c0.4,-0.667 0.967,-1.204 1.7,-1.613c0.733,-0.408 1.525,-0.612 2.375,-0.612c1.367,-0 2.483,0.467 3.35,1.4c0.867,0.933 1.3,2.292 1.3,4.075l0,7.175c0,0.167 -0.054,0.308 -0.162,0.425c-0.109,0.117 -0.255,0.175 -0.438,0.175l-2.075,-0c-0.167,-0 -0.308,-0.058 -0.425,-0.175c-0.117,-0.117 -0.175,-0.258 -0.175,-0.425l0,-6.975c0,-1.05 -0.221,-1.808 -0.662,-2.275c-0.442,-0.467 -1.021,-0.7 -1.738,-0.7c-0.65,-0 -1.204,0.237 -1.662,0.712c-0.459,0.476 -0.688,1.23 -0.688,2.263l0,6.975c0,0.167 -0.054,0.308 -0.162,0.425c-0.109,0.117 -0.255,0.175 -0.438,0.175l-2.1,-0c-0.167,-0 -0.308,-0.058 -0.425,-0.175c-0.117,-0.117 -0.175,-0.258 -0.175,-0.425l0,-6.975c0,-1.033 -0.225,-1.787 -0.675,-2.263c-0.45,-0.475 -1.025,-0.712 -1.725,-0.712c-0.65,-0 -1.204,0.237 -1.662,0.712c-0.459,0.476 -0.688,1.23 -0.688,2.263l0,6.975c0,0.167 -0.054,0.308 -0.162,0.425c-0.109,0.117 -0.255,0.175 -0.438,0.175l-2.125,-0Zm22.6,4.75c-0.167,-0 -0.308,-0.054 -0.425,-0.163c-0.117,-0.108 -0.175,-0.254 -0.175,-0.437l0,-16.55c0,-0.183 0.058,-0.329 0.175,-0.438c0.117,-0.108 0.258,-0.162 0.425,-0.162l2,-0c0.183,-0 0.333,0.058 0.45,0.175c0.117,0.117 0.175,0.258 0.175,0.425l0,1c0.883,-1.233 2.208,-1.85 3.975,-1.85c1.683,-0 2.975,0.529 3.875,1.587c0.9,1.059 1.383,2.48 1.45,4.263c0.017,0.2 0.025,0.5 0.025,0.9c0,0.4 -0.008,0.7 -0.025,0.9c-0.05,1.75 -0.529,3.162 -1.437,4.237c-0.909,1.076 -2.205,1.613 -3.888,1.613c-1.667,-0 -2.942,-0.592 -3.825,-1.775l0,5.675c0,0.183 -0.054,0.329 -0.162,0.437c-0.109,0.109 -0.255,0.163 -0.438,0.163l-2.175,-0Zm5.65,-7.2c1.783,-0 2.733,-1.1 2.85,-3.3c0.017,-0.167 0.025,-0.417 0.025,-0.75c0,-0.333 -0.008,-0.583 -0.025,-0.75c-0.117,-2.2 -1.067,-3.3 -2.85,-3.3c-0.95,-0 -1.658,0.308 -2.125,0.925c-0.467,0.617 -0.717,1.367 -0.75,2.25c-0.017,0.2 -0.025,0.517 -0.025,0.95c0,0.433 0.008,0.758 0.025,0.975c0.033,0.833 0.292,1.542 0.775,2.125c0.483,0.583 1.183,0.875 2.1,0.875Zm9.7,2.45c-0.167,-0 -0.308,-0.058 -0.425,-0.175c-0.117,-0.117 -0.175,-0.258 -0.175,-0.425l0,-16.55c0,-0.183 0.058,-0.329 0.175,-0.438c0.117,-0.108 0.258,-0.162 0.425,-0.162l2.1,-0c0.183,-0 0.329,0.054 0.438,0.162c0.108,0.109 0.162,0.255 0.162,0.438l0,16.55c0,0.167 -0.054,0.308 -0.162,0.425c-0.109,0.117 -0.255,0.175 -0.438,0.175l-2.1,-0Zm11.65,0.25c-1.867,-0 -3.346,-0.533 -4.437,-1.6c-1.092,-1.067 -1.671,-2.583 -1.738,-4.55l-0.025,-0.625c0,-2.083 0.546,-3.725 1.638,-4.925c1.091,-1.2 2.604,-1.8 4.537,-1.8c1.983,-0 3.512,0.6 4.588,1.8c1.075,1.2 1.612,2.8 1.612,4.8l0,0.525c0,0.167 -0.058,0.308 -0.175,0.425c-0.117,0.117 -0.267,0.175 -0.45,0.175l-8.3,-0l0,0.2c0.033,0.933 0.287,1.704 0.763,2.312c0.475,0.609 1.129,0.913 1.962,0.913c0.95,-0 1.725,-0.383 2.325,-1.15c0.15,-0.183 0.267,-0.296 0.35,-0.338c0.083,-0.041 0.225,-0.062 0.425,-0.062l2.2,-0c0.15,-0 0.279,0.042 0.388,0.125c0.108,0.083 0.162,0.2 0.162,0.35c0,0.4 -0.237,0.871 -0.713,1.412c-0.475,0.542 -1.154,1.013 -2.037,1.413c-0.883,0.4 -1.908,0.6 -3.075,0.6Zm2.725,-7.9l0,-0.05c0,-0.983 -0.246,-1.771 -0.737,-2.363c-0.492,-0.591 -1.163,-0.887 -2.013,-0.887c-0.85,-0 -1.517,0.296 -2,0.887c-0.483,0.592 -0.725,1.38 -0.725,2.363l0,0.05l5.475,-0Z" style="fill:#303535;fill-rule:nonzero;"/><path id="_-" serif:id="" d="M16.503,17.23l1.326,-2.23l5.171,8.852c-1.238,1.006 -2.608,1.782 -4.11,2.328c-1.503,0.547 -3.117,0.82 -4.84,0.82c-1.061,0 -2.078,-0.109 -3.05,-0.328l5.503,-9.442Zm-15.503,0.77l14,0l-5.343,9c-2.074,-0.756 -3.855,-1.922 -5.343,-3.5c-1.488,-1.578 -2.593,-3.411 -3.314,-5.5Zm8.323,-4.989l1.677,2.989l-10.732,0c-0.179,-0.973 -0.268,-1.97 -0.268,-2.989c0,-1.947 0.335,-3.777 1.006,-5.492c0.671,-1.715 1.587,-3.221 2.75,-4.519l5.567,10.011Zm18.409,-2.011c0.179,0.973 0.268,1.97 0.268,2.989c0,1.947 -0.335,3.766 -1.006,5.458c-0.671,1.691 -1.587,3.209 -2.75,4.553l-7.244,-13l10.732,-0Zm-0.732,-1l-14,-0l5.343,-9c2.074,0.756 3.855,1.922 5.343,3.5c1.488,1.578 2.593,3.411 3.314,5.5Zm-16.696,1.869l-0.133,0.131l-5.171,-8.852c1.238,-1.006 2.608,-1.782 4.11,-2.328c1.503,-0.547 3.117,-0.82 4.84,-0.82c1.061,-0 2.078,0.109 3.05,0.328l-6.696,11.541Z" style="fill:#f00;fill-rule:nonzero;"/></g></g></g></svg>