<?xml version="1.0" encoding="UTF-8" standalone="no"?>
<!DOCTYPE svg PUBLIC "-//W3C//DTD SVG 1.1//EN" "http://www.w3.org/Graphics/SVG/1.1/DTD/svg11.dtd">
<svg width="477px" height="333px" viewBox="0 0 477 333" version="1.1" xmlns="http://www.w3.org/2000/svg" xmlns:xlink="http://www.w3.org/1999/xlink" xml:space="preserve" xmlns:serif="http://www.serif.com/" style="fill-rule:evenodd;clip-rule:evenodd;stroke-linecap:round;stroke-linejoin:round;stroke-miterlimit:1.5;">
    <g id="Layer3" transform="matrix(1.04504,0,0,1.04504,-11.6027,-4.45055)">
        <g transform="matrix(1.19075,0,0,1.19075,-636.563,-658.52)">
            <path d="M734.292,558.044L738.491,620.906L747.191,584.087L746.827,621.918L765.948,561.887L754.981,623.928L772.24,590.261L762.833,626.906L795.764,573.195L770.269,630.809L795.083,602.25L777.18,635.579L822.008,591.31L783.466,641.148L814.394,619.358L789.035,647.434L843.155,615.179L793.805,654.345L829.049,640.589L797.708,661.781L857.974,643.415L800.686,669.633L838.197,664.712L802.695,677.787L865.606,674.378L803.708,686.123L841.307,690.322L803.708,694.521L865.606,706.266L802.695,702.857L838.197,715.932L800.686,711.011L857.974,737.229L797.708,718.863L829.049,740.055L793.805,726.299L843.155,765.465L789.035,733.21L814.394,761.286L783.466,739.496L822.008,789.334L777.18,745.065L795.083,778.394L770.269,749.836L795.764,807.449L762.833,753.738L772.24,790.383L754.981,756.716L765.948,818.757L746.827,758.726L747.191,796.557L738.491,759.738L734.292,822.6L730.093,759.738L721.392,796.557L721.756,758.726L702.635,818.757L713.602,756.716L696.343,790.383L705.75,753.738L672.819,807.449L698.314,749.836L673.5,778.394L691.403,745.065L646.575,789.334L685.117,739.496L654.189,761.286L679.549,733.21L625.429,765.465L674.778,726.299L639.534,740.055L670.876,718.863L610.609,737.229L667.898,711.011L630.386,715.932L665.888,702.857L602.978,706.266L664.876,694.521L627.276,690.322L664.876,686.123L602.978,674.378L665.888,677.787L630.386,664.712L667.898,669.633L610.609,643.415L670.876,661.781L639.534,640.589L674.778,654.345L625.429,615.179L679.549,647.434L654.189,619.358L685.117,641.148L646.575,591.31L691.403,635.579L673.5,602.25L698.314,630.809L672.819,573.195L705.75,626.906L696.343,590.261L713.602,623.928L702.635,561.887L721.756,621.918L721.392,584.087L730.093,620.906L734.292,558.044Z" style="fill:url(#_Radial1);stroke:rgb(6,0,255);stroke-opacity:0;stroke-width:3.76px;"/>
        </g>
        <g transform="matrix(0.396438,0,0,0.396438,-42.6946,-158.656)">
            <path d="M496.991,664.876L496.991,975.548" style="fill:none;stroke:rgb(6,0,255);stroke-width:4.52px;"/>
        </g>
        <g transform="matrix(0.895979,0,0,0.895979,-72.7676,-499.276)">
            <g transform="matrix(144,0,0,144,211.905,799.839)">
                <path d="M0.074,-0.245C0.077,-0.258 0.089,-0.272 0.095,-0.281C0.104,-0.295 0.117,-0.309 0.122,-0.325C0.125,-0.332 0.126,-0.34 0.126,-0.347C0.126,-0.365 0.118,-0.383 0.101,-0.395C0.091,-0.403 0.078,-0.406 0.066,-0.406C0.055,-0.406 0.045,-0.404 0.035,-0.399C0.014,-0.389 0.007,-0.369 0.007,-0.347C0.007,-0.341 0.008,-0.334 0.009,-0.328C0.011,-0.312 0.026,-0.296 0.034,-0.283C0.041,-0.272 0.054,-0.257 0.057,-0.243C0.057,-0.239 0.057,-0.236 0.058,-0.232C0.057,-0.231 0.056,-0.229 0.056,-0.227C0.057,-0.135 0.11,-0.054 0.194,-0.017C0.222,-0.004 0.252,0.001 0.281,0.001C0.341,0.001 0.401,-0.023 0.445,-0.066C0.489,-0.109 0.511,-0.168 0.511,-0.228C0.511,-0.258 0.506,-0.287 0.495,-0.315C0.46,-0.4 0.375,-0.453 0.284,-0.455C0.187,-0.457 0.122,-0.538 0.122,-0.622C0.122,-0.661 0.136,-0.7 0.166,-0.733C0.197,-0.766 0.24,-0.782 0.284,-0.782C0.303,-0.782 0.322,-0.779 0.34,-0.773C0.405,-0.751 0.446,-0.687 0.447,-0.62C0.447,-0.609 0.463,-0.609 0.463,-0.62C0.462,-0.693 0.42,-0.756 0.353,-0.785C0.331,-0.795 0.308,-0.799 0.285,-0.799C0.239,-0.799 0.194,-0.781 0.16,-0.749C0.124,-0.716 0.105,-0.668 0.105,-0.619C0.105,-0.596 0.11,-0.573 0.118,-0.551C0.144,-0.483 0.212,-0.44 0.284,-0.439C0.368,-0.437 0.441,-0.39 0.477,-0.315C0.49,-0.288 0.496,-0.258 0.496,-0.229C0.496,-0.173 0.473,-0.118 0.434,-0.077C0.394,-0.036 0.339,-0.016 0.284,-0.016C0.258,-0.016 0.232,-0.02 0.207,-0.029C0.126,-0.059 0.074,-0.141 0.072,-0.226C0.076,-0.23 0.075,-0.238 0.074,-0.245ZM0.066,-0.267C0.053,-0.289 0.032,-0.309 0.025,-0.331C0.024,-0.336 0.023,-0.342 0.023,-0.347C0.023,-0.365 0.031,-0.382 0.051,-0.388C0.055,-0.389 0.06,-0.39 0.065,-0.39C0.081,-0.39 0.096,-0.382 0.105,-0.368C0.109,-0.362 0.11,-0.355 0.11,-0.349C0.11,-0.332 0.098,-0.315 0.088,-0.3C0.082,-0.291 0.073,-0.279 0.066,-0.267Z" style="fill:rgb(0,32,255);fill-rule:nonzero;"/>
            </g>
            <g transform="matrix(144,0,0,144,287.217,799.839)">
                <path d="M0.343,-0.493L0.305,-0.613C0.302,-0.623 0.287,-0.619 0.29,-0.609C0.302,-0.569 0.315,-0.529 0.328,-0.488C0.292,-0.477 0.258,-0.457 0.227,-0.434C0.227,-0.435 0.227,-0.436 0.226,-0.436C0.201,-0.471 0.177,-0.506 0.152,-0.54C0.146,-0.549 0.132,-0.541 0.138,-0.532C0.163,-0.497 0.187,-0.463 0.212,-0.428C0.213,-0.427 0.214,-0.426 0.216,-0.425C0.193,-0.407 0.172,-0.386 0.153,-0.366C0.151,-0.364 0.15,-0.362 0.15,-0.36C0.15,-0.358 0.151,-0.356 0.153,-0.354C0.196,-0.308 0.246,-0.265 0.304,-0.241C0.305,-0.24 0.307,-0.239 0.309,-0.239C0.341,-0.226 0.372,-0.221 0.401,-0.221C0.5,-0.221 0.583,-0.285 0.648,-0.354C0.649,-0.356 0.65,-0.358 0.65,-0.36C0.65,-0.362 0.649,-0.364 0.648,-0.366C0.63,-0.384 0.612,-0.402 0.592,-0.419C0.615,-0.452 0.639,-0.484 0.662,-0.517C0.669,-0.526 0.654,-0.534 0.648,-0.526C0.625,-0.493 0.602,-0.461 0.579,-0.429C0.547,-0.454 0.511,-0.475 0.473,-0.487L0.473,-0.488C0.486,-0.528 0.498,-0.569 0.511,-0.609C0.514,-0.619 0.498,-0.623 0.495,-0.613C0.483,-0.573 0.47,-0.533 0.457,-0.492C0.438,-0.497 0.418,-0.499 0.397,-0.499C0.379,-0.499 0.36,-0.497 0.343,-0.493ZM0.29,-0.265C0.244,-0.288 0.204,-0.324 0.169,-0.36C0.205,-0.397 0.245,-0.432 0.291,-0.455C0.274,-0.424 0.265,-0.392 0.265,-0.36C0.265,-0.328 0.274,-0.296 0.29,-0.265ZM0.482,-0.253C0.455,-0.243 0.427,-0.237 0.398,-0.237C0.37,-0.237 0.342,-0.243 0.315,-0.253C0.293,-0.288 0.281,-0.324 0.281,-0.36C0.281,-0.395 0.293,-0.431 0.316,-0.465L0.317,-0.466C0.344,-0.476 0.374,-0.482 0.403,-0.482C0.429,-0.482 0.456,-0.478 0.481,-0.468C0.481,-0.468 0.481,-0.467 0.482,-0.467C0.505,-0.432 0.517,-0.397 0.517,-0.361C0.517,-0.325 0.505,-0.288 0.482,-0.253ZM0.507,-0.264C0.524,-0.296 0.533,-0.328 0.533,-0.361C0.533,-0.393 0.524,-0.426 0.507,-0.457C0.554,-0.433 0.595,-0.397 0.631,-0.36C0.595,-0.322 0.553,-0.287 0.507,-0.264ZM0.786,-0.4C0.785,-0.271 0.72,-0.151 0.612,-0.079C0.55,-0.038 0.477,-0.018 0.404,-0.018C0.349,-0.018 0.294,-0.029 0.243,-0.052C0.128,-0.104 0.048,-0.212 0.025,-0.335C0.021,-0.356 0.019,-0.378 0.019,-0.399C0.019,-0.506 0.066,-0.61 0.145,-0.683C0.215,-0.749 0.309,-0.782 0.402,-0.782C0.457,-0.782 0.512,-0.771 0.562,-0.748C0.698,-0.687 0.784,-0.548 0.786,-0.4ZM0.802,-0.4C0.802,-0.624 0.614,-0.799 0.398,-0.799C0.379,-0.799 0.36,-0.798 0.341,-0.795C0.141,-0.766 0.005,-0.586 0.005,-0.395C0.005,-0.355 0.011,-0.314 0.024,-0.274C0.078,-0.108 0.237,-0.002 0.406,-0.002C0.426,-0.002 0.445,-0.003 0.465,-0.006C0.658,-0.033 0.8,-0.208 0.802,-0.4Z" style="fill:rgb(0,32,255);fill-rule:nonzero;"/>
            </g>
            <g transform="matrix(144,0,0,144,404.865,799.839)">
                <path d="M0.127,-0.245L0.209,-0.245L0.209,-0.163L0.127,-0.163L0.127,-0.245ZM0.021,-0L0.266,-0C0.276,-0 0.276,-0.016 0.266,-0.016L0.037,-0.016C0.063,-0.056 0.089,-0.096 0.116,-0.135C0.119,-0.14 0.121,-0.143 0.123,-0.147L0.217,-0.147C0.221,-0.147 0.225,-0.151 0.225,-0.155L0.225,-0.253C0.225,-0.257 0.221,-0.261 0.217,-0.261L0.119,-0.261C0.115,-0.261 0.111,-0.257 0.111,-0.253L0.111,-0.164C0.111,-0.16 0.11,-0.156 0.111,-0.157C0.083,-0.117 0.057,-0.075 0.029,-0.035L0.029,-0.793C0.029,-0.803 0.013,-0.803 0.013,-0.793L0.013,-0.01C0.012,-0.005 0.017,-0 0.021,-0Z" style="fill:rgb(0,32,255);fill-rule:nonzero;"/>
            </g>
            <g transform="matrix(144,0,0,144,446.481,799.839)">
                <path d="M0.031,-0.784L0.14,-0.784C0.175,-0.784 0.209,-0.783 0.241,-0.764C0.304,-0.728 0.308,-0.665 0.308,-0.602L0.308,-0.155C0.308,-0.073 0.24,-0.016 0.161,-0.016L0.031,-0.016L0.031,-0.784ZM0.023,-0L0.146,0C0.174,0 0.201,-0.001 0.229,-0.011C0.279,-0.031 0.313,-0.078 0.322,-0.13C0.324,-0.139 0.325,-0.149 0.325,-0.158C0.325,-0.168 0.324,-0.177 0.324,-0.186L0.324,-0.631C0.324,-0.707 0.285,-0.773 0.208,-0.795C0.193,-0.8 0.176,-0.801 0.159,-0.801C0.144,-0.801 0.129,-0.8 0.115,-0.8L0.023,-0.8C0.018,-0.8 0.015,-0.796 0.015,-0.792L0.015,-0.008C0.015,-0.003 0.018,-0 0.023,-0Z" style="fill:rgb(0,32,255);fill-rule:nonzero;"/>
            </g>
        </g>
        <g transform="matrix(0.577569,0,0,0.577569,-38.8531,-248.93)">
            <circle cx="478.983" cy="725.49" r="13.007" style="fill:rgb(6,0,255);"/>
        </g>
        <g transform="matrix(0.895979,0,0,0.895979,-6.82821,-566.326)">
            <circle cx="273.021" cy="821.913" r="3.836" style="fill:rgb(255,216,25);"/>
        </g>
        <g transform="matrix(0.466485,0,0,0.466485,-83.6005,-270.32)">
            <circle cx="688.966" cy="944.106" r="7.121" style="fill:white;"/>
        </g>
    </g>
    <defs>
        <radialGradient id="_Radial1" cx="0" cy="0" r="1" gradientUnits="userSpaceOnUse" gradientTransform="matrix(-87.6294,-141.151,141.151,-87.6294,734.292,699.194)"><stop offset="0" style="stop-color:rgb(148,3,3);stop-opacity:1"/><stop offset="0.45" style="stop-color:rgb(214,255,53);stop-opacity:1"/><stop offset="0.76" style="stop-color:rgb(222,255,95);stop-opacity:1"/><stop offset="1" style="stop-color:white;stop-opacity:1"/></radialGradient>
    </defs>
</svg>
