<?xml version="1.0" encoding="UTF-8" standalone="no"?>
<!DOCTYPE svg PUBLIC "-//W3C//DTD SVG 1.1//EN" "http://www.w3.org/Graphics/SVG/1.1/DTD/svg11.dtd">
<svg width="129px" height="104px" viewBox="0 0 129 104" version="1.1" xmlns="http://www.w3.org/2000/svg" xmlns:xlink="http://www.w3.org/1999/xlink" xml:space="preserve" xmlns:serif="http://www.serif.com/" style="fill-rule:evenodd;clip-rule:evenodd;stroke-linecap:round;stroke-linejoin:round;stroke-miterlimit:1.5;">
    <g id="Layer2">
    </g>
    <g id="Layer4">
        <g transform="matrix(0.387459,0,0,0.387459,-220.253,-215.225)">
            <path d="M734.292,558.044L738.491,620.906L747.191,584.087L746.827,621.918L765.948,561.887L754.981,623.928L772.24,590.261L762.833,626.906L795.764,573.195L770.269,630.809L795.083,602.25L777.18,635.579L822.008,591.31L783.466,641.148L814.394,619.358L789.035,647.434L843.155,615.179L793.805,654.345L829.049,640.589L797.708,661.781L857.974,643.415L800.686,669.633L838.197,664.712L802.695,677.787L865.606,674.378L803.708,686.123L841.307,690.322L803.708,694.521L865.606,706.266L802.695,702.857L838.197,715.932L800.686,711.011L857.974,737.229L797.708,718.863L829.049,740.055L793.805,726.299L843.155,765.465L789.035,733.21L814.394,761.286L783.466,739.496L822.008,789.334L777.18,745.065L795.083,778.394L770.269,749.836L795.764,807.449L762.833,753.738L772.24,790.383L754.981,756.716L765.948,818.757L746.827,758.726L747.191,796.557L738.491,759.738L734.292,822.6L730.093,759.738L721.392,796.557L721.756,758.726L702.635,818.757L713.602,756.716L696.343,790.383L705.75,753.738L672.819,807.449L698.314,749.836L673.5,778.394L691.403,745.065L646.575,789.334L685.117,739.496L654.189,761.286L679.549,733.21L625.429,765.465L674.778,726.299L639.534,740.055L670.876,718.863L610.609,737.229L667.898,711.011L630.386,715.932L665.888,702.857L602.978,706.266L664.876,694.521L627.276,690.322L664.876,686.123L602.978,674.378L665.888,677.787L630.386,664.712L667.898,669.633L610.609,643.415L670.876,661.781L639.534,640.589L674.778,654.345L625.429,615.179L679.549,647.434L654.189,619.358L685.117,641.148L646.575,591.31L691.403,635.579L673.5,602.25L698.314,630.809L672.819,573.195L705.75,626.906L696.343,590.261L713.602,623.928L702.635,561.887L721.756,621.918L721.392,584.087L730.093,620.906L734.292,558.044Z" style="fill:url(#_Radial1);stroke:rgb(6,0,255);stroke-opacity:0;stroke-width:3.76px;"/>
        </g>
        <g transform="matrix(41.9824,0,0,41.9824,46.9378,69.7799)">
            <path d="M0.343,-0.493L0.305,-0.613C0.302,-0.623 0.287,-0.619 0.29,-0.609C0.302,-0.569 0.315,-0.529 0.328,-0.488C0.292,-0.477 0.258,-0.457 0.227,-0.434C0.227,-0.435 0.227,-0.436 0.226,-0.436C0.201,-0.471 0.177,-0.506 0.152,-0.54C0.146,-0.549 0.132,-0.541 0.138,-0.532C0.163,-0.497 0.187,-0.463 0.212,-0.428C0.213,-0.427 0.214,-0.426 0.216,-0.425C0.193,-0.407 0.172,-0.386 0.153,-0.366C0.151,-0.364 0.15,-0.362 0.15,-0.36C0.15,-0.358 0.151,-0.356 0.153,-0.354C0.196,-0.308 0.246,-0.265 0.304,-0.241C0.305,-0.24 0.307,-0.239 0.309,-0.239C0.341,-0.226 0.372,-0.221 0.401,-0.221C0.5,-0.221 0.583,-0.285 0.648,-0.354C0.649,-0.356 0.65,-0.358 0.65,-0.36C0.65,-0.362 0.649,-0.364 0.648,-0.366C0.63,-0.384 0.612,-0.402 0.592,-0.419C0.615,-0.452 0.639,-0.484 0.662,-0.517C0.669,-0.526 0.654,-0.534 0.648,-0.526C0.625,-0.493 0.602,-0.461 0.579,-0.429C0.547,-0.454 0.511,-0.475 0.473,-0.487L0.473,-0.488C0.486,-0.528 0.498,-0.569 0.511,-0.609C0.514,-0.619 0.498,-0.623 0.495,-0.613C0.483,-0.573 0.47,-0.533 0.457,-0.492C0.438,-0.497 0.418,-0.499 0.397,-0.499C0.379,-0.499 0.36,-0.497 0.343,-0.493ZM0.29,-0.265C0.244,-0.288 0.204,-0.324 0.169,-0.36C0.205,-0.397 0.245,-0.432 0.291,-0.455C0.274,-0.424 0.265,-0.392 0.265,-0.36C0.265,-0.328 0.274,-0.296 0.29,-0.265ZM0.482,-0.253C0.455,-0.243 0.427,-0.237 0.398,-0.237C0.37,-0.237 0.342,-0.243 0.315,-0.253C0.293,-0.288 0.281,-0.324 0.281,-0.36C0.281,-0.395 0.293,-0.431 0.316,-0.465L0.317,-0.466C0.344,-0.476 0.374,-0.482 0.403,-0.482C0.429,-0.482 0.456,-0.478 0.481,-0.468C0.481,-0.468 0.481,-0.467 0.482,-0.467C0.505,-0.432 0.517,-0.397 0.517,-0.361C0.517,-0.325 0.505,-0.288 0.482,-0.253ZM0.507,-0.264C0.524,-0.296 0.533,-0.328 0.533,-0.361C0.533,-0.393 0.524,-0.426 0.507,-0.457C0.554,-0.433 0.595,-0.397 0.631,-0.36C0.595,-0.322 0.553,-0.287 0.507,-0.264ZM0.786,-0.4C0.785,-0.271 0.72,-0.151 0.612,-0.079C0.55,-0.038 0.477,-0.018 0.404,-0.018C0.349,-0.018 0.294,-0.029 0.243,-0.052C0.128,-0.104 0.048,-0.212 0.025,-0.335C0.021,-0.356 0.019,-0.378 0.019,-0.399C0.019,-0.506 0.066,-0.61 0.145,-0.683C0.215,-0.749 0.309,-0.782 0.402,-0.782C0.457,-0.782 0.512,-0.771 0.562,-0.748C0.698,-0.687 0.784,-0.548 0.786,-0.4ZM0.802,-0.4C0.802,-0.624 0.614,-0.799 0.398,-0.799C0.379,-0.799 0.36,-0.798 0.341,-0.795C0.141,-0.766 0.005,-0.586 0.005,-0.395C0.005,-0.355 0.011,-0.314 0.024,-0.274C0.078,-0.108 0.237,-0.002 0.406,-0.002C0.426,-0.002 0.445,-0.003 0.465,-0.006C0.658,-0.033 0.8,-0.208 0.802,-0.4Z" style="fill:rgb(21,0,170);fill-rule:nonzero;"/>
        </g>
        <g transform="matrix(0.260477,0,0,0.260477,-115.576,-191.301)">
            <circle cx="688.966" cy="944.106" r="7.121" style="fill:white;stroke:rgb(255,0,1);stroke-width:3.65px;stroke-linecap:butt;stroke-miterlimit:2;"/>
        </g>
    </g>
    <defs>
        <radialGradient id="_Radial1" cx="0" cy="0" r="1" gradientUnits="userSpaceOnUse" gradientTransform="matrix(-87.6294,-141.151,141.151,-87.6294,734.292,699.194)"><stop offset="0" style="stop-color:rgb(148,3,3);stop-opacity:1"/><stop offset="0.45" style="stop-color:rgb(214,255,53);stop-opacity:1"/><stop offset="0.76" style="stop-color:rgb(222,255,95);stop-opacity:1"/><stop offset="1" style="stop-color:white;stop-opacity:1"/></radialGradient>
    </defs>
</svg>
