<?xml version="1.0" encoding="UTF-8" standalone="no"?>
<!DOCTYPE svg PUBLIC "-//W3C//DTD SVG 1.1//EN" "http://www.w3.org/Graphics/SVG/1.1/DTD/svg11.dtd">
<svg width="129px" height="104px" viewBox="0 0 129 104" version="1.1" xmlns="http://www.w3.org/2000/svg" xmlns:xlink="http://www.w3.org/1999/xlink" xml:space="preserve" xmlns:serif="http://www.serif.com/" style="fill-rule:evenodd;clip-rule:evenodd;stroke-linejoin:round;stroke-miterlimit:2;">
    <g transform="matrix(0.588579,0,0,0.588579,-455.652,-352.107)">
        <g transform="matrix(96,0,0,96,776.96,772.137)">
            <path d="M0.212,-0.8L0.209,-0.8C0.124,-0.8 0.059,-0.727 0.057,-0.645C0.041,-0.434 0.025,-0.22 0.009,-0.008C0.008,-0.003 0.012,-0 0.017,-0L0.408,-0C0.412,-0 0.416,-0.003 0.416,-0.008C0.4,-0.22 0.383,-0.434 0.367,-0.645C0.365,-0.73 0.298,-0.8 0.212,-0.8ZM0.351,-0.646L0.351,-0.644C0.356,-0.582 0.36,-0.518 0.365,-0.456L0.059,-0.456C0.064,-0.518 0.069,-0.582 0.074,-0.644L0.074,-0.646C0.076,-0.723 0.136,-0.782 0.212,-0.784C0.289,-0.784 0.348,-0.721 0.351,-0.646ZM0.388,-0.163L0.037,-0.163C0.04,-0.206 0.043,-0.25 0.047,-0.293L0.378,-0.293C0.381,-0.25 0.384,-0.206 0.388,-0.163ZM0.389,-0.146C0.392,-0.103 0.396,-0.059 0.399,-0.016L0.025,-0.016C0.029,-0.059 0.032,-0.103 0.035,-0.146L0.389,-0.146ZM0.376,-0.309L0.048,-0.309C0.051,-0.353 0.055,-0.396 0.058,-0.44L0.366,-0.44C0.37,-0.396 0.373,-0.353 0.376,-0.309Z" style="fill:rgb(255,0,6);fill-rule:nonzero;"/>
        </g>
        <g transform="matrix(96,0,0,96,814.4,772.137)">
            <path d="M0.526,-0.016L0.405,-0.016C0.358,-0.186 0.311,-0.357 0.264,-0.528C0.275,-0.537 0.284,-0.549 0.292,-0.561C0.37,-0.38 0.448,-0.197 0.526,-0.016ZM0.284,-0.016L0.284,-0.017C0.26,-0.177 0.236,-0.337 0.211,-0.497C0.225,-0.501 0.238,-0.508 0.25,-0.517L0.388,-0.016L0.284,-0.016ZM0.196,-0.493C0.22,-0.334 0.244,-0.174 0.268,-0.016L0.155,-0.016L0.155,-0.49L0.165,-0.49C0.176,-0.49 0.186,-0.491 0.196,-0.493ZM0.318,-0.644L0.318,-0.645C0.315,-0.731 0.249,-0.797 0.163,-0.799L0.16,-0.799C0.075,-0.799 0.01,-0.726 0.008,-0.644L0.008,-0.64C0.008,-0.565 0.067,-0.505 0.139,-0.492L0.139,-0.008C0.139,-0.003 0.142,-0 0.147,-0L0.538,-0C0.545,-0 0.547,-0.006 0.545,-0.012L0.302,-0.579C0.311,-0.599 0.318,-0.622 0.318,-0.644ZM0.302,-0.644C0.3,-0.567 0.24,-0.508 0.163,-0.506L0.16,-0.506C0.084,-0.506 0.026,-0.571 0.025,-0.644L0.025,-0.647C0.025,-0.723 0.09,-0.781 0.163,-0.783L0.166,-0.783C0.242,-0.783 0.3,-0.717 0.302,-0.644Z" style="fill:rgb(255,0,6);fill-rule:nonzero;"/>
        </g>
        <g transform="matrix(96,0,0,96,845.12,772.137)">
            <path d="M0.22,-0.007L0.22,-0.725C0.246,-0.703 0.275,-0.687 0.31,-0.686L0.314,-0.686C0.353,-0.686 0.387,-0.712 0.413,-0.737C0.415,-0.739 0.416,-0.741 0.416,-0.743C0.416,-0.745 0.415,-0.747 0.413,-0.749C0.384,-0.777 0.351,-0.798 0.31,-0.8L0.308,-0.8C0.271,-0.8 0.238,-0.778 0.212,-0.754C0.184,-0.78 0.153,-0.799 0.114,-0.8L0.11,-0.8C0.071,-0.8 0.037,-0.774 0.011,-0.749C0.009,-0.747 0.008,-0.745 0.008,-0.743C0.008,-0.741 0.009,-0.739 0.011,-0.737C0.04,-0.709 0.073,-0.688 0.114,-0.686L0.117,-0.686C0.15,-0.686 0.18,-0.704 0.204,-0.725L0.204,-0.007C0.204,0.004 0.22,0.004 0.22,-0.007ZM0.224,-0.743C0.248,-0.765 0.276,-0.782 0.31,-0.784L0.312,-0.784C0.344,-0.784 0.373,-0.764 0.396,-0.743C0.371,-0.721 0.344,-0.704 0.31,-0.702L0.308,-0.702C0.276,-0.702 0.246,-0.722 0.224,-0.743ZM0.028,-0.743C0.053,-0.765 0.08,-0.782 0.114,-0.784L0.116,-0.784C0.148,-0.784 0.178,-0.764 0.2,-0.743C0.176,-0.721 0.149,-0.704 0.114,-0.702L0.112,-0.702C0.08,-0.702 0.051,-0.722 0.028,-0.743Z" style="fill:rgb(255,0,6);fill-rule:nonzero;"/>
        </g>
        <g transform="matrix(96,0,0,96,886.016,772.137)">
            <path d="M0.221,-0.017L0.18,-0.017L0.18,-0.538L0.221,-0.538C0.231,-0.538 0.231,-0.555 0.221,-0.555L0.025,-0.555C0.015,-0.555 0.015,-0.538 0.025,-0.538L0.066,-0.538L0.066,-0.017L0.025,-0.017C0.015,-0.017 0.015,-0 0.025,-0L0.221,-0C0.231,-0 0.231,-0.017 0.221,-0.017ZM0.177,-0.674C0.18,-0.682 0.182,-0.69 0.182,-0.699C0.182,-0.707 0.18,-0.715 0.177,-0.723C0.188,-0.716 0.199,-0.707 0.209,-0.698C0.199,-0.689 0.188,-0.681 0.177,-0.674ZM0.153,-0.663C0.143,-0.659 0.132,-0.657 0.121,-0.657C0.111,-0.657 0.101,-0.659 0.092,-0.662C0.084,-0.674 0.08,-0.686 0.08,-0.698C0.08,-0.709 0.084,-0.721 0.092,-0.733C0.103,-0.736 0.114,-0.738 0.125,-0.738C0.135,-0.738 0.144,-0.737 0.152,-0.734C0.161,-0.722 0.165,-0.71 0.165,-0.698C0.165,-0.686 0.161,-0.675 0.153,-0.663ZM0.068,-0.674C0.057,-0.681 0.046,-0.689 0.037,-0.698C0.047,-0.707 0.057,-0.715 0.068,-0.722C0.065,-0.714 0.064,-0.706 0.064,-0.698C0.064,-0.69 0.065,-0.682 0.068,-0.674ZM0.103,-0.754C0.098,-0.767 0.094,-0.78 0.089,-0.794C0.086,-0.804 0.07,-0.799 0.074,-0.789C0.078,-0.776 0.083,-0.763 0.087,-0.749C0.076,-0.745 0.065,-0.739 0.054,-0.732C0.045,-0.745 0.035,-0.757 0.025,-0.769C0.019,-0.778 0.008,-0.766 0.014,-0.758C0.023,-0.746 0.032,-0.735 0.041,-0.723C0.033,-0.717 0.026,-0.71 0.019,-0.704C0.018,-0.702 0.017,-0.7 0.017,-0.698C0.017,-0.696 0.018,-0.694 0.019,-0.692C0.038,-0.674 0.058,-0.659 0.081,-0.65C0.082,-0.649 0.084,-0.648 0.086,-0.648C0.099,-0.643 0.112,-0.641 0.124,-0.641C0.165,-0.641 0.198,-0.665 0.226,-0.692C0.228,-0.694 0.229,-0.696 0.229,-0.698C0.229,-0.7 0.228,-0.702 0.226,-0.704C0.22,-0.71 0.214,-0.715 0.207,-0.721C0.215,-0.731 0.224,-0.742 0.232,-0.752C0.238,-0.761 0.227,-0.772 0.22,-0.764C0.212,-0.753 0.203,-0.742 0.194,-0.73C0.183,-0.738 0.171,-0.744 0.158,-0.748C0.163,-0.762 0.168,-0.776 0.172,-0.789C0.176,-0.799 0.16,-0.804 0.157,-0.794C0.152,-0.78 0.147,-0.766 0.143,-0.753C0.135,-0.754 0.127,-0.755 0.118,-0.755C0.113,-0.755 0.108,-0.755 0.103,-0.754ZM0.082,-0.017L0.082,-0.538L0.164,-0.538L0.164,-0.017L0.082,-0.017Z" style="fill:rgb(255,0,6);fill-rule:nonzero;"/>
        </g>
        <g transform="matrix(96,0,0,96,905.312,772.137)">
            <path d="M0.074,-0.245C0.077,-0.258 0.089,-0.272 0.095,-0.281C0.104,-0.295 0.117,-0.309 0.122,-0.325C0.125,-0.332 0.126,-0.34 0.126,-0.347C0.126,-0.365 0.118,-0.383 0.101,-0.395C0.091,-0.403 0.078,-0.406 0.066,-0.406C0.055,-0.406 0.045,-0.404 0.035,-0.399C0.014,-0.389 0.007,-0.369 0.007,-0.347C0.007,-0.341 0.008,-0.334 0.009,-0.328C0.011,-0.312 0.026,-0.296 0.034,-0.283C0.041,-0.272 0.054,-0.257 0.057,-0.243C0.057,-0.239 0.057,-0.236 0.058,-0.232C0.057,-0.231 0.056,-0.229 0.056,-0.227C0.057,-0.135 0.11,-0.054 0.194,-0.017C0.222,-0.004 0.252,0.001 0.281,0.001C0.341,0.001 0.401,-0.023 0.445,-0.066C0.489,-0.109 0.511,-0.168 0.511,-0.228C0.511,-0.258 0.506,-0.287 0.495,-0.315C0.46,-0.4 0.375,-0.453 0.284,-0.455C0.187,-0.457 0.122,-0.538 0.122,-0.622C0.122,-0.661 0.136,-0.7 0.166,-0.733C0.197,-0.766 0.24,-0.782 0.284,-0.782C0.303,-0.782 0.322,-0.779 0.34,-0.773C0.405,-0.751 0.446,-0.687 0.447,-0.62C0.447,-0.609 0.463,-0.609 0.463,-0.62C0.462,-0.693 0.42,-0.756 0.353,-0.785C0.331,-0.795 0.308,-0.799 0.285,-0.799C0.239,-0.799 0.194,-0.781 0.16,-0.749C0.124,-0.716 0.105,-0.668 0.105,-0.619C0.105,-0.596 0.11,-0.573 0.118,-0.551C0.144,-0.483 0.212,-0.44 0.284,-0.439C0.368,-0.437 0.441,-0.39 0.477,-0.315C0.49,-0.288 0.496,-0.258 0.496,-0.229C0.496,-0.173 0.473,-0.118 0.434,-0.077C0.394,-0.036 0.339,-0.016 0.284,-0.016C0.258,-0.016 0.232,-0.02 0.207,-0.029C0.126,-0.059 0.074,-0.141 0.072,-0.226C0.076,-0.23 0.075,-0.238 0.074,-0.245ZM0.066,-0.267C0.053,-0.289 0.032,-0.309 0.025,-0.331C0.024,-0.336 0.023,-0.342 0.023,-0.347C0.023,-0.365 0.031,-0.382 0.051,-0.388C0.055,-0.389 0.06,-0.39 0.065,-0.39C0.081,-0.39 0.096,-0.382 0.105,-0.368C0.109,-0.362 0.11,-0.355 0.11,-0.349C0.11,-0.332 0.098,-0.315 0.088,-0.3C0.082,-0.291 0.073,-0.279 0.066,-0.267Z" style="fill:rgb(255,0,6);fill-rule:nonzero;"/>
        </g>
        <g transform="matrix(96,0,0,96,948.032,772.137)">
            <path d="M0.22,-0.007L0.22,-0.725C0.246,-0.703 0.275,-0.687 0.31,-0.686L0.314,-0.686C0.353,-0.686 0.387,-0.712 0.413,-0.737C0.415,-0.739 0.416,-0.741 0.416,-0.743C0.416,-0.745 0.415,-0.747 0.413,-0.749C0.384,-0.777 0.351,-0.798 0.31,-0.8L0.308,-0.8C0.271,-0.8 0.238,-0.778 0.212,-0.754C0.184,-0.78 0.153,-0.799 0.114,-0.8L0.11,-0.8C0.071,-0.8 0.037,-0.774 0.011,-0.749C0.009,-0.747 0.008,-0.745 0.008,-0.743C0.008,-0.741 0.009,-0.739 0.011,-0.737C0.04,-0.709 0.073,-0.688 0.114,-0.686L0.117,-0.686C0.15,-0.686 0.18,-0.704 0.204,-0.725L0.204,-0.007C0.204,0.004 0.22,0.004 0.22,-0.007ZM0.224,-0.743C0.248,-0.765 0.276,-0.782 0.31,-0.784L0.312,-0.784C0.344,-0.784 0.373,-0.764 0.396,-0.743C0.371,-0.721 0.344,-0.704 0.31,-0.702L0.308,-0.702C0.276,-0.702 0.246,-0.722 0.224,-0.743ZM0.028,-0.743C0.053,-0.765 0.08,-0.782 0.114,-0.784L0.116,-0.784C0.148,-0.784 0.178,-0.764 0.2,-0.743C0.176,-0.721 0.149,-0.704 0.114,-0.702L0.112,-0.702C0.08,-0.702 0.051,-0.722 0.028,-0.743Z" style="fill:rgb(255,0,6);fill-rule:nonzero;"/>
        </g>
    </g>
    <g transform="matrix(0.588579,0,0,0.588579,-454.699,-353.094)">
        <g transform="matrix(96,0,0,96,776.96,772.137)">
            <path d="M0.212,-0.8L0.209,-0.8C0.124,-0.8 0.059,-0.727 0.057,-0.645C0.041,-0.434 0.025,-0.22 0.009,-0.008C0.008,-0.003 0.012,-0 0.017,-0L0.408,-0C0.412,-0 0.416,-0.003 0.416,-0.008C0.4,-0.22 0.383,-0.434 0.367,-0.645C0.365,-0.73 0.298,-0.8 0.212,-0.8ZM0.351,-0.646L0.351,-0.644C0.356,-0.582 0.36,-0.518 0.365,-0.456L0.059,-0.456C0.064,-0.518 0.069,-0.582 0.074,-0.644L0.074,-0.646C0.076,-0.723 0.136,-0.782 0.212,-0.784C0.289,-0.784 0.348,-0.721 0.351,-0.646ZM0.388,-0.163L0.037,-0.163C0.04,-0.206 0.043,-0.25 0.047,-0.293L0.378,-0.293C0.381,-0.25 0.384,-0.206 0.388,-0.163ZM0.389,-0.146C0.392,-0.103 0.396,-0.059 0.399,-0.016L0.025,-0.016C0.029,-0.059 0.032,-0.103 0.035,-0.146L0.389,-0.146ZM0.376,-0.309L0.048,-0.309C0.051,-0.353 0.055,-0.396 0.058,-0.44L0.366,-0.44C0.37,-0.396 0.373,-0.353 0.376,-0.309Z" style="fill:rgb(234,255,67);fill-rule:nonzero;"/>
        </g>
        <g transform="matrix(96,0,0,96,814.4,772.137)">
            <path d="M0.526,-0.016L0.405,-0.016C0.358,-0.186 0.311,-0.357 0.264,-0.528C0.275,-0.537 0.284,-0.549 0.292,-0.561C0.37,-0.38 0.448,-0.197 0.526,-0.016ZM0.284,-0.016L0.284,-0.017C0.26,-0.177 0.236,-0.337 0.211,-0.497C0.225,-0.501 0.238,-0.508 0.25,-0.517L0.388,-0.016L0.284,-0.016ZM0.196,-0.493C0.22,-0.334 0.244,-0.174 0.268,-0.016L0.155,-0.016L0.155,-0.49L0.165,-0.49C0.176,-0.49 0.186,-0.491 0.196,-0.493ZM0.318,-0.644L0.318,-0.645C0.315,-0.731 0.249,-0.797 0.163,-0.799L0.16,-0.799C0.075,-0.799 0.01,-0.726 0.008,-0.644L0.008,-0.64C0.008,-0.565 0.067,-0.505 0.139,-0.492L0.139,-0.008C0.139,-0.003 0.142,-0 0.147,-0L0.538,-0C0.545,-0 0.547,-0.006 0.545,-0.012L0.302,-0.579C0.311,-0.599 0.318,-0.622 0.318,-0.644ZM0.302,-0.644C0.3,-0.567 0.24,-0.508 0.163,-0.506L0.16,-0.506C0.084,-0.506 0.026,-0.571 0.025,-0.644L0.025,-0.647C0.025,-0.723 0.09,-0.781 0.163,-0.783L0.166,-0.783C0.242,-0.783 0.3,-0.717 0.302,-0.644Z" style="fill:rgb(234,255,67);fill-rule:nonzero;"/>
        </g>
        <g transform="matrix(96,0,0,96,845.12,772.137)">
            <path d="M0.22,-0.007L0.22,-0.725C0.246,-0.703 0.275,-0.687 0.31,-0.686L0.314,-0.686C0.353,-0.686 0.387,-0.712 0.413,-0.737C0.415,-0.739 0.416,-0.741 0.416,-0.743C0.416,-0.745 0.415,-0.747 0.413,-0.749C0.384,-0.777 0.351,-0.798 0.31,-0.8L0.308,-0.8C0.271,-0.8 0.238,-0.778 0.212,-0.754C0.184,-0.78 0.153,-0.799 0.114,-0.8L0.11,-0.8C0.071,-0.8 0.037,-0.774 0.011,-0.749C0.009,-0.747 0.008,-0.745 0.008,-0.743C0.008,-0.741 0.009,-0.739 0.011,-0.737C0.04,-0.709 0.073,-0.688 0.114,-0.686L0.117,-0.686C0.15,-0.686 0.18,-0.704 0.204,-0.725L0.204,-0.007C0.204,0.004 0.22,0.004 0.22,-0.007ZM0.224,-0.743C0.248,-0.765 0.276,-0.782 0.31,-0.784L0.312,-0.784C0.344,-0.784 0.373,-0.764 0.396,-0.743C0.371,-0.721 0.344,-0.704 0.31,-0.702L0.308,-0.702C0.276,-0.702 0.246,-0.722 0.224,-0.743ZM0.028,-0.743C0.053,-0.765 0.08,-0.782 0.114,-0.784L0.116,-0.784C0.148,-0.784 0.178,-0.764 0.2,-0.743C0.176,-0.721 0.149,-0.704 0.114,-0.702L0.112,-0.702C0.08,-0.702 0.051,-0.722 0.028,-0.743Z" style="fill:rgb(234,255,67);fill-rule:nonzero;"/>
        </g>
        <g transform="matrix(96,0,0,96,886.016,772.137)">
            <path d="M0.221,-0.017L0.18,-0.017L0.18,-0.538L0.221,-0.538C0.231,-0.538 0.231,-0.555 0.221,-0.555L0.025,-0.555C0.015,-0.555 0.015,-0.538 0.025,-0.538L0.066,-0.538L0.066,-0.017L0.025,-0.017C0.015,-0.017 0.015,-0 0.025,-0L0.221,-0C0.231,-0 0.231,-0.017 0.221,-0.017ZM0.177,-0.674C0.18,-0.682 0.182,-0.69 0.182,-0.699C0.182,-0.707 0.18,-0.715 0.177,-0.723C0.188,-0.716 0.199,-0.707 0.209,-0.698C0.199,-0.689 0.188,-0.681 0.177,-0.674ZM0.153,-0.663C0.143,-0.659 0.132,-0.657 0.121,-0.657C0.111,-0.657 0.101,-0.659 0.092,-0.662C0.084,-0.674 0.08,-0.686 0.08,-0.698C0.08,-0.709 0.084,-0.721 0.092,-0.733C0.103,-0.736 0.114,-0.738 0.125,-0.738C0.135,-0.738 0.144,-0.737 0.152,-0.734C0.161,-0.722 0.165,-0.71 0.165,-0.698C0.165,-0.686 0.161,-0.675 0.153,-0.663ZM0.068,-0.674C0.057,-0.681 0.046,-0.689 0.037,-0.698C0.047,-0.707 0.057,-0.715 0.068,-0.722C0.065,-0.714 0.064,-0.706 0.064,-0.698C0.064,-0.69 0.065,-0.682 0.068,-0.674ZM0.103,-0.754C0.098,-0.767 0.094,-0.78 0.089,-0.794C0.086,-0.804 0.07,-0.799 0.074,-0.789C0.078,-0.776 0.083,-0.763 0.087,-0.749C0.076,-0.745 0.065,-0.739 0.054,-0.732C0.045,-0.745 0.035,-0.757 0.025,-0.769C0.019,-0.778 0.008,-0.766 0.014,-0.758C0.023,-0.746 0.032,-0.735 0.041,-0.723C0.033,-0.717 0.026,-0.71 0.019,-0.704C0.018,-0.702 0.017,-0.7 0.017,-0.698C0.017,-0.696 0.018,-0.694 0.019,-0.692C0.038,-0.674 0.058,-0.659 0.081,-0.65C0.082,-0.649 0.084,-0.648 0.086,-0.648C0.099,-0.643 0.112,-0.641 0.124,-0.641C0.165,-0.641 0.198,-0.665 0.226,-0.692C0.228,-0.694 0.229,-0.696 0.229,-0.698C0.229,-0.7 0.228,-0.702 0.226,-0.704C0.22,-0.71 0.214,-0.715 0.207,-0.721C0.215,-0.731 0.224,-0.742 0.232,-0.752C0.238,-0.761 0.227,-0.772 0.22,-0.764C0.212,-0.753 0.203,-0.742 0.194,-0.73C0.183,-0.738 0.171,-0.744 0.158,-0.748C0.163,-0.762 0.168,-0.776 0.172,-0.789C0.176,-0.799 0.16,-0.804 0.157,-0.794C0.152,-0.78 0.147,-0.766 0.143,-0.753C0.135,-0.754 0.127,-0.755 0.118,-0.755C0.113,-0.755 0.108,-0.755 0.103,-0.754ZM0.082,-0.017L0.082,-0.538L0.164,-0.538L0.164,-0.017L0.082,-0.017Z" style="fill:rgb(234,255,67);fill-rule:nonzero;"/>
        </g>
        <g transform="matrix(96,0,0,96,905.312,772.137)">
            <path d="M0.074,-0.245C0.077,-0.258 0.089,-0.272 0.095,-0.281C0.104,-0.295 0.117,-0.309 0.122,-0.325C0.125,-0.332 0.126,-0.34 0.126,-0.347C0.126,-0.365 0.118,-0.383 0.101,-0.395C0.091,-0.403 0.078,-0.406 0.066,-0.406C0.055,-0.406 0.045,-0.404 0.035,-0.399C0.014,-0.389 0.007,-0.369 0.007,-0.347C0.007,-0.341 0.008,-0.334 0.009,-0.328C0.011,-0.312 0.026,-0.296 0.034,-0.283C0.041,-0.272 0.054,-0.257 0.057,-0.243C0.057,-0.239 0.057,-0.236 0.058,-0.232C0.057,-0.231 0.056,-0.229 0.056,-0.227C0.057,-0.135 0.11,-0.054 0.194,-0.017C0.222,-0.004 0.252,0.001 0.281,0.001C0.341,0.001 0.401,-0.023 0.445,-0.066C0.489,-0.109 0.511,-0.168 0.511,-0.228C0.511,-0.258 0.506,-0.287 0.495,-0.315C0.46,-0.4 0.375,-0.453 0.284,-0.455C0.187,-0.457 0.122,-0.538 0.122,-0.622C0.122,-0.661 0.136,-0.7 0.166,-0.733C0.197,-0.766 0.24,-0.782 0.284,-0.782C0.303,-0.782 0.322,-0.779 0.34,-0.773C0.405,-0.751 0.446,-0.687 0.447,-0.62C0.447,-0.609 0.463,-0.609 0.463,-0.62C0.462,-0.693 0.42,-0.756 0.353,-0.785C0.331,-0.795 0.308,-0.799 0.285,-0.799C0.239,-0.799 0.194,-0.781 0.16,-0.749C0.124,-0.716 0.105,-0.668 0.105,-0.619C0.105,-0.596 0.11,-0.573 0.118,-0.551C0.144,-0.483 0.212,-0.44 0.284,-0.439C0.368,-0.437 0.441,-0.39 0.477,-0.315C0.49,-0.288 0.496,-0.258 0.496,-0.229C0.496,-0.173 0.473,-0.118 0.434,-0.077C0.394,-0.036 0.339,-0.016 0.284,-0.016C0.258,-0.016 0.232,-0.02 0.207,-0.029C0.126,-0.059 0.074,-0.141 0.072,-0.226C0.076,-0.23 0.075,-0.238 0.074,-0.245ZM0.066,-0.267C0.053,-0.289 0.032,-0.309 0.025,-0.331C0.024,-0.336 0.023,-0.342 0.023,-0.347C0.023,-0.365 0.031,-0.382 0.051,-0.388C0.055,-0.389 0.06,-0.39 0.065,-0.39C0.081,-0.39 0.096,-0.382 0.105,-0.368C0.109,-0.362 0.11,-0.355 0.11,-0.349C0.11,-0.332 0.098,-0.315 0.088,-0.3C0.082,-0.291 0.073,-0.279 0.066,-0.267Z" style="fill:rgb(234,255,67);fill-rule:nonzero;"/>
        </g>
        <g transform="matrix(96,0,0,96,948.032,772.137)">
            <path d="M0.22,-0.007L0.22,-0.725C0.246,-0.703 0.275,-0.687 0.31,-0.686L0.314,-0.686C0.353,-0.686 0.387,-0.712 0.413,-0.737C0.415,-0.739 0.416,-0.741 0.416,-0.743C0.416,-0.745 0.415,-0.747 0.413,-0.749C0.384,-0.777 0.351,-0.798 0.31,-0.8L0.308,-0.8C0.271,-0.8 0.238,-0.778 0.212,-0.754C0.184,-0.78 0.153,-0.799 0.114,-0.8L0.11,-0.8C0.071,-0.8 0.037,-0.774 0.011,-0.749C0.009,-0.747 0.008,-0.745 0.008,-0.743C0.008,-0.741 0.009,-0.739 0.011,-0.737C0.04,-0.709 0.073,-0.688 0.114,-0.686L0.117,-0.686C0.15,-0.686 0.18,-0.704 0.204,-0.725L0.204,-0.007C0.204,0.004 0.22,0.004 0.22,-0.007ZM0.224,-0.743C0.248,-0.765 0.276,-0.782 0.31,-0.784L0.312,-0.784C0.344,-0.784 0.373,-0.764 0.396,-0.743C0.371,-0.721 0.344,-0.704 0.31,-0.702L0.308,-0.702C0.276,-0.702 0.246,-0.722 0.224,-0.743ZM0.028,-0.743C0.053,-0.765 0.08,-0.782 0.114,-0.784L0.116,-0.784C0.148,-0.784 0.178,-0.764 0.2,-0.743C0.176,-0.721 0.149,-0.704 0.114,-0.702L0.112,-0.702C0.08,-0.702 0.051,-0.722 0.028,-0.743Z" style="fill:rgb(234,255,67);fill-rule:nonzero;"/>
        </g>
    </g>
    <g transform="matrix(0.588579,0,0,0.588579,-453.582,-354.11)">
        <g transform="matrix(96,0,0,96,776.96,772.137)">
            <path d="M0.212,-0.8L0.209,-0.8C0.124,-0.8 0.059,-0.727 0.057,-0.645C0.041,-0.434 0.025,-0.22 0.009,-0.008C0.008,-0.003 0.012,-0 0.017,-0L0.408,-0C0.412,-0 0.416,-0.003 0.416,-0.008C0.4,-0.22 0.383,-0.434 0.367,-0.645C0.365,-0.73 0.298,-0.8 0.212,-0.8ZM0.351,-0.646L0.351,-0.644C0.356,-0.582 0.36,-0.518 0.365,-0.456L0.059,-0.456C0.064,-0.518 0.069,-0.582 0.074,-0.644L0.074,-0.646C0.076,-0.723 0.136,-0.782 0.212,-0.784C0.289,-0.784 0.348,-0.721 0.351,-0.646ZM0.388,-0.163L0.037,-0.163C0.04,-0.206 0.043,-0.25 0.047,-0.293L0.378,-0.293C0.381,-0.25 0.384,-0.206 0.388,-0.163ZM0.389,-0.146C0.392,-0.103 0.396,-0.059 0.399,-0.016L0.025,-0.016C0.029,-0.059 0.032,-0.103 0.035,-0.146L0.389,-0.146ZM0.376,-0.309L0.048,-0.309C0.051,-0.353 0.055,-0.396 0.058,-0.44L0.366,-0.44C0.37,-0.396 0.373,-0.353 0.376,-0.309Z" style="fill:rgb(72,67,255);fill-rule:nonzero;"/>
        </g>
        <g transform="matrix(96,0,0,96,814.4,772.137)">
            <path d="M0.526,-0.016L0.405,-0.016C0.358,-0.186 0.311,-0.357 0.264,-0.528C0.275,-0.537 0.284,-0.549 0.292,-0.561C0.37,-0.38 0.448,-0.197 0.526,-0.016ZM0.284,-0.016L0.284,-0.017C0.26,-0.177 0.236,-0.337 0.211,-0.497C0.225,-0.501 0.238,-0.508 0.25,-0.517L0.388,-0.016L0.284,-0.016ZM0.196,-0.493C0.22,-0.334 0.244,-0.174 0.268,-0.016L0.155,-0.016L0.155,-0.49L0.165,-0.49C0.176,-0.49 0.186,-0.491 0.196,-0.493ZM0.318,-0.644L0.318,-0.645C0.315,-0.731 0.249,-0.797 0.163,-0.799L0.16,-0.799C0.075,-0.799 0.01,-0.726 0.008,-0.644L0.008,-0.64C0.008,-0.565 0.067,-0.505 0.139,-0.492L0.139,-0.008C0.139,-0.003 0.142,-0 0.147,-0L0.538,-0C0.545,-0 0.547,-0.006 0.545,-0.012L0.302,-0.579C0.311,-0.599 0.318,-0.622 0.318,-0.644ZM0.302,-0.644C0.3,-0.567 0.24,-0.508 0.163,-0.506L0.16,-0.506C0.084,-0.506 0.026,-0.571 0.025,-0.644L0.025,-0.647C0.025,-0.723 0.09,-0.781 0.163,-0.783L0.166,-0.783C0.242,-0.783 0.3,-0.717 0.302,-0.644Z" style="fill:rgb(72,67,255);fill-rule:nonzero;"/>
        </g>
        <g transform="matrix(96,0,0,96,845.12,772.137)">
            <path d="M0.22,-0.007L0.22,-0.725C0.246,-0.703 0.275,-0.687 0.31,-0.686L0.314,-0.686C0.353,-0.686 0.387,-0.712 0.413,-0.737C0.415,-0.739 0.416,-0.741 0.416,-0.743C0.416,-0.745 0.415,-0.747 0.413,-0.749C0.384,-0.777 0.351,-0.798 0.31,-0.8L0.308,-0.8C0.271,-0.8 0.238,-0.778 0.212,-0.754C0.184,-0.78 0.153,-0.799 0.114,-0.8L0.11,-0.8C0.071,-0.8 0.037,-0.774 0.011,-0.749C0.009,-0.747 0.008,-0.745 0.008,-0.743C0.008,-0.741 0.009,-0.739 0.011,-0.737C0.04,-0.709 0.073,-0.688 0.114,-0.686L0.117,-0.686C0.15,-0.686 0.18,-0.704 0.204,-0.725L0.204,-0.007C0.204,0.004 0.22,0.004 0.22,-0.007ZM0.224,-0.743C0.248,-0.765 0.276,-0.782 0.31,-0.784L0.312,-0.784C0.344,-0.784 0.373,-0.764 0.396,-0.743C0.371,-0.721 0.344,-0.704 0.31,-0.702L0.308,-0.702C0.276,-0.702 0.246,-0.722 0.224,-0.743ZM0.028,-0.743C0.053,-0.765 0.08,-0.782 0.114,-0.784L0.116,-0.784C0.148,-0.784 0.178,-0.764 0.2,-0.743C0.176,-0.721 0.149,-0.704 0.114,-0.702L0.112,-0.702C0.08,-0.702 0.051,-0.722 0.028,-0.743Z" style="fill:rgb(72,67,255);fill-rule:nonzero;"/>
        </g>
        <g transform="matrix(96,0,0,96,886.016,772.137)">
            <path d="M0.221,-0.017L0.18,-0.017L0.18,-0.538L0.221,-0.538C0.231,-0.538 0.231,-0.555 0.221,-0.555L0.025,-0.555C0.015,-0.555 0.015,-0.538 0.025,-0.538L0.066,-0.538L0.066,-0.017L0.025,-0.017C0.015,-0.017 0.015,-0 0.025,-0L0.221,-0C0.231,-0 0.231,-0.017 0.221,-0.017ZM0.177,-0.674C0.18,-0.682 0.182,-0.69 0.182,-0.699C0.182,-0.707 0.18,-0.715 0.177,-0.723C0.188,-0.716 0.199,-0.707 0.209,-0.698C0.199,-0.689 0.188,-0.681 0.177,-0.674ZM0.153,-0.663C0.143,-0.659 0.132,-0.657 0.121,-0.657C0.111,-0.657 0.101,-0.659 0.092,-0.662C0.084,-0.674 0.08,-0.686 0.08,-0.698C0.08,-0.709 0.084,-0.721 0.092,-0.733C0.103,-0.736 0.114,-0.738 0.125,-0.738C0.135,-0.738 0.144,-0.737 0.152,-0.734C0.161,-0.722 0.165,-0.71 0.165,-0.698C0.165,-0.686 0.161,-0.675 0.153,-0.663ZM0.068,-0.674C0.057,-0.681 0.046,-0.689 0.037,-0.698C0.047,-0.707 0.057,-0.715 0.068,-0.722C0.065,-0.714 0.064,-0.706 0.064,-0.698C0.064,-0.69 0.065,-0.682 0.068,-0.674ZM0.103,-0.754C0.098,-0.767 0.094,-0.78 0.089,-0.794C0.086,-0.804 0.07,-0.799 0.074,-0.789C0.078,-0.776 0.083,-0.763 0.087,-0.749C0.076,-0.745 0.065,-0.739 0.054,-0.732C0.045,-0.745 0.035,-0.757 0.025,-0.769C0.019,-0.778 0.008,-0.766 0.014,-0.758C0.023,-0.746 0.032,-0.735 0.041,-0.723C0.033,-0.717 0.026,-0.71 0.019,-0.704C0.018,-0.702 0.017,-0.7 0.017,-0.698C0.017,-0.696 0.018,-0.694 0.019,-0.692C0.038,-0.674 0.058,-0.659 0.081,-0.65C0.082,-0.649 0.084,-0.648 0.086,-0.648C0.099,-0.643 0.112,-0.641 0.124,-0.641C0.165,-0.641 0.198,-0.665 0.226,-0.692C0.228,-0.694 0.229,-0.696 0.229,-0.698C0.229,-0.7 0.228,-0.702 0.226,-0.704C0.22,-0.71 0.214,-0.715 0.207,-0.721C0.215,-0.731 0.224,-0.742 0.232,-0.752C0.238,-0.761 0.227,-0.772 0.22,-0.764C0.212,-0.753 0.203,-0.742 0.194,-0.73C0.183,-0.738 0.171,-0.744 0.158,-0.748C0.163,-0.762 0.168,-0.776 0.172,-0.789C0.176,-0.799 0.16,-0.804 0.157,-0.794C0.152,-0.78 0.147,-0.766 0.143,-0.753C0.135,-0.754 0.127,-0.755 0.118,-0.755C0.113,-0.755 0.108,-0.755 0.103,-0.754ZM0.082,-0.017L0.082,-0.538L0.164,-0.538L0.164,-0.017L0.082,-0.017Z" style="fill:rgb(72,67,255);fill-rule:nonzero;"/>
        </g>
        <g transform="matrix(96,0,0,96,905.312,772.137)">
            <path d="M0.074,-0.245C0.077,-0.258 0.089,-0.272 0.095,-0.281C0.104,-0.295 0.117,-0.309 0.122,-0.325C0.125,-0.332 0.126,-0.34 0.126,-0.347C0.126,-0.365 0.118,-0.383 0.101,-0.395C0.091,-0.403 0.078,-0.406 0.066,-0.406C0.055,-0.406 0.045,-0.404 0.035,-0.399C0.014,-0.389 0.007,-0.369 0.007,-0.347C0.007,-0.341 0.008,-0.334 0.009,-0.328C0.011,-0.312 0.026,-0.296 0.034,-0.283C0.041,-0.272 0.054,-0.257 0.057,-0.243C0.057,-0.239 0.057,-0.236 0.058,-0.232C0.057,-0.231 0.056,-0.229 0.056,-0.227C0.057,-0.135 0.11,-0.054 0.194,-0.017C0.222,-0.004 0.252,0.001 0.281,0.001C0.341,0.001 0.401,-0.023 0.445,-0.066C0.489,-0.109 0.511,-0.168 0.511,-0.228C0.511,-0.258 0.506,-0.287 0.495,-0.315C0.46,-0.4 0.375,-0.453 0.284,-0.455C0.187,-0.457 0.122,-0.538 0.122,-0.622C0.122,-0.661 0.136,-0.7 0.166,-0.733C0.197,-0.766 0.24,-0.782 0.284,-0.782C0.303,-0.782 0.322,-0.779 0.34,-0.773C0.405,-0.751 0.446,-0.687 0.447,-0.62C0.447,-0.609 0.463,-0.609 0.463,-0.62C0.462,-0.693 0.42,-0.756 0.353,-0.785C0.331,-0.795 0.308,-0.799 0.285,-0.799C0.239,-0.799 0.194,-0.781 0.16,-0.749C0.124,-0.716 0.105,-0.668 0.105,-0.619C0.105,-0.596 0.11,-0.573 0.118,-0.551C0.144,-0.483 0.212,-0.44 0.284,-0.439C0.368,-0.437 0.441,-0.39 0.477,-0.315C0.49,-0.288 0.496,-0.258 0.496,-0.229C0.496,-0.173 0.473,-0.118 0.434,-0.077C0.394,-0.036 0.339,-0.016 0.284,-0.016C0.258,-0.016 0.232,-0.02 0.207,-0.029C0.126,-0.059 0.074,-0.141 0.072,-0.226C0.076,-0.23 0.075,-0.238 0.074,-0.245ZM0.066,-0.267C0.053,-0.289 0.032,-0.309 0.025,-0.331C0.024,-0.336 0.023,-0.342 0.023,-0.347C0.023,-0.365 0.031,-0.382 0.051,-0.388C0.055,-0.389 0.06,-0.39 0.065,-0.39C0.081,-0.39 0.096,-0.382 0.105,-0.368C0.109,-0.362 0.11,-0.355 0.11,-0.349C0.11,-0.332 0.098,-0.315 0.088,-0.3C0.082,-0.291 0.073,-0.279 0.066,-0.267Z" style="fill:rgb(72,67,255);fill-rule:nonzero;"/>
        </g>
        <g transform="matrix(96,0,0,96,948.032,772.137)">
            <path d="M0.22,-0.007L0.22,-0.725C0.246,-0.703 0.275,-0.687 0.31,-0.686L0.314,-0.686C0.353,-0.686 0.387,-0.712 0.413,-0.737C0.415,-0.739 0.416,-0.741 0.416,-0.743C0.416,-0.745 0.415,-0.747 0.413,-0.749C0.384,-0.777 0.351,-0.798 0.31,-0.8L0.308,-0.8C0.271,-0.8 0.238,-0.778 0.212,-0.754C0.184,-0.78 0.153,-0.799 0.114,-0.8L0.11,-0.8C0.071,-0.8 0.037,-0.774 0.011,-0.749C0.009,-0.747 0.008,-0.745 0.008,-0.743C0.008,-0.741 0.009,-0.739 0.011,-0.737C0.04,-0.709 0.073,-0.688 0.114,-0.686L0.117,-0.686C0.15,-0.686 0.18,-0.704 0.204,-0.725L0.204,-0.007C0.204,0.004 0.22,0.004 0.22,-0.007ZM0.224,-0.743C0.248,-0.765 0.276,-0.782 0.31,-0.784L0.312,-0.784C0.344,-0.784 0.373,-0.764 0.396,-0.743C0.371,-0.721 0.344,-0.704 0.31,-0.702L0.308,-0.702C0.276,-0.702 0.246,-0.722 0.224,-0.743ZM0.028,-0.743C0.053,-0.765 0.08,-0.782 0.114,-0.784L0.116,-0.784C0.148,-0.784 0.178,-0.764 0.2,-0.743C0.176,-0.721 0.149,-0.704 0.114,-0.702L0.112,-0.702C0.08,-0.702 0.051,-0.722 0.028,-0.743Z" style="fill:rgb(72,67,255);fill-rule:nonzero;"/>
        </g>
    </g>
    <g id="Layer1" transform="matrix(1,0,0,1,75.2334,-44.0521)">
        <g transform="matrix(56.5036,0,0,56.5036,-70.4598,91.2496)">
            <path d="M0.302,-0.783L0.302,-0.053L0.029,-0.783L0.302,-0.783ZM0.025,-0.016L0.025,-0.746C0.117,-0.503 0.208,-0.259 0.299,-0.016L0.025,-0.016ZM0.319,-0.008L0.319,-0.791C0.319,-0.796 0.315,-0.799 0.311,-0.799L0.017,-0.799C0.012,-0.799 0.009,-0.796 0.009,-0.791L0.009,-0.008C0.009,-0.003 0.013,-0 0.017,-0L0.311,-0C0.315,-0 0.319,-0.003 0.319,-0.008Z" style="fill:rgb(72,67,255);fill-rule:nonzero;"/>
        </g>
        <g transform="matrix(56.5036,0,0,56.5036,-51.4746,91.2496)">
            <path d="M0.408,-0.098C0.366,-0.046 0.305,-0.016 0.24,-0.016C0.223,-0.016 0.205,-0.019 0.187,-0.023C0.102,-0.043 0.04,-0.119 0.03,-0.205C0.029,-0.213 0.028,-0.222 0.028,-0.23C0.028,-0.291 0.057,-0.349 0.103,-0.389C0.113,-0.382 0.123,-0.375 0.135,-0.369C0.167,-0.351 0.202,-0.343 0.238,-0.343C0.29,-0.343 0.343,-0.361 0.385,-0.395C0.393,-0.401 0.384,-0.406 0.38,-0.409C0.338,-0.44 0.29,-0.456 0.241,-0.456C0.203,-0.456 0.166,-0.447 0.131,-0.429C0.121,-0.424 0.111,-0.417 0.102,-0.41C0.054,-0.451 0.029,-0.514 0.029,-0.577L0.029,-0.591C0.035,-0.678 0.1,-0.751 0.183,-0.776C0.202,-0.781 0.22,-0.784 0.239,-0.784C0.302,-0.784 0.363,-0.754 0.405,-0.705C0.412,-0.697 0.423,-0.709 0.417,-0.717C0.371,-0.77 0.306,-0.8 0.238,-0.8C0.218,-0.8 0.198,-0.797 0.178,-0.792C0.091,-0.768 0.023,-0.688 0.014,-0.598C0.013,-0.59 0.013,-0.581 0.013,-0.573C0.013,-0.506 0.041,-0.444 0.089,-0.4C0.04,-0.357 0.012,-0.291 0.012,-0.226C0.012,-0.216 0.013,-0.207 0.014,-0.198C0.025,-0.108 0.091,-0.036 0.175,-0.009C0.196,-0.002 0.218,0.001 0.239,0.001C0.308,0.001 0.376,-0.032 0.419,-0.086C0.426,-0.094 0.414,-0.106 0.408,-0.098ZM0.365,-0.4C0.328,-0.373 0.283,-0.361 0.239,-0.361C0.194,-0.361 0.15,-0.374 0.115,-0.399C0.123,-0.405 0.131,-0.41 0.139,-0.415C0.17,-0.432 0.204,-0.44 0.238,-0.44C0.283,-0.44 0.327,-0.426 0.365,-0.4Z" style="fill:rgb(72,67,255);fill-rule:nonzero;"/>
        </g>
        <g transform="matrix(56.5036,0,0,56.5036,-27.4041,91.2496)">
            <path d="M0.009,-0.791L0.107,-0.007C0.108,0.004 0.122,0.004 0.123,-0.007C0.153,-0.246 0.183,-0.487 0.213,-0.726L0.302,-0.007C0.304,0.004 0.317,0.004 0.319,-0.007C0.349,-0.246 0.379,-0.487 0.408,-0.726L0.498,-0.007C0.499,0.004 0.513,0.004 0.514,-0.007C0.546,-0.263 0.578,-0.52 0.61,-0.776C0.611,-0.785 0.615,-0.799 0.604,-0.799L0.017,-0.799C0.012,-0.799 0.008,-0.796 0.009,-0.791ZM0.595,-0.783C0.565,-0.547 0.536,-0.308 0.506,-0.072C0.477,-0.308 0.447,-0.547 0.418,-0.783L0.595,-0.783ZM0.399,-0.783C0.37,-0.547 0.34,-0.308 0.311,-0.072L0.222,-0.783L0.399,-0.783ZM0.204,-0.783C0.174,-0.547 0.145,-0.308 0.115,-0.072C0.086,-0.308 0.056,-0.547 0.026,-0.783L0.204,-0.783Z" style="fill:rgb(72,67,255);fill-rule:nonzero;"/>
        </g>
        <g transform="matrix(56.5036,0,0,56.5036,-71.5769,92.2655)">
            <path d="M0.302,-0.783L0.302,-0.053L0.029,-0.783L0.302,-0.783ZM0.025,-0.016L0.025,-0.746C0.117,-0.503 0.208,-0.259 0.299,-0.016L0.025,-0.016ZM0.319,-0.008L0.319,-0.791C0.319,-0.796 0.315,-0.799 0.311,-0.799L0.017,-0.799C0.012,-0.799 0.009,-0.796 0.009,-0.791L0.009,-0.008C0.009,-0.003 0.013,-0 0.017,-0L0.311,-0C0.315,-0 0.319,-0.003 0.319,-0.008Z" style="fill:rgb(234,255,67);fill-rule:nonzero;"/>
        </g>
        <g transform="matrix(56.5036,0,0,56.5036,-52.5917,92.2655)">
            <path d="M0.408,-0.098C0.366,-0.046 0.305,-0.016 0.24,-0.016C0.223,-0.016 0.205,-0.019 0.187,-0.023C0.102,-0.043 0.04,-0.119 0.03,-0.205C0.029,-0.213 0.028,-0.222 0.028,-0.23C0.028,-0.291 0.057,-0.349 0.103,-0.389C0.113,-0.382 0.123,-0.375 0.135,-0.369C0.167,-0.351 0.202,-0.343 0.238,-0.343C0.29,-0.343 0.343,-0.361 0.385,-0.395C0.393,-0.401 0.384,-0.406 0.38,-0.409C0.338,-0.44 0.29,-0.456 0.241,-0.456C0.203,-0.456 0.166,-0.447 0.131,-0.429C0.121,-0.424 0.111,-0.417 0.102,-0.41C0.054,-0.451 0.029,-0.514 0.029,-0.577L0.029,-0.591C0.035,-0.678 0.1,-0.751 0.183,-0.776C0.202,-0.781 0.22,-0.784 0.239,-0.784C0.302,-0.784 0.363,-0.754 0.405,-0.705C0.412,-0.697 0.423,-0.709 0.417,-0.717C0.371,-0.77 0.306,-0.8 0.238,-0.8C0.218,-0.8 0.198,-0.797 0.178,-0.792C0.091,-0.768 0.023,-0.688 0.014,-0.598C0.013,-0.59 0.013,-0.581 0.013,-0.573C0.013,-0.506 0.041,-0.444 0.089,-0.4C0.04,-0.357 0.012,-0.291 0.012,-0.226C0.012,-0.216 0.013,-0.207 0.014,-0.198C0.025,-0.108 0.091,-0.036 0.175,-0.009C0.196,-0.002 0.218,0.001 0.239,0.001C0.308,0.001 0.376,-0.032 0.419,-0.086C0.426,-0.094 0.414,-0.106 0.408,-0.098ZM0.365,-0.4C0.328,-0.373 0.283,-0.361 0.239,-0.361C0.194,-0.361 0.15,-0.374 0.115,-0.399C0.123,-0.405 0.131,-0.41 0.139,-0.415C0.17,-0.432 0.204,-0.44 0.238,-0.44C0.283,-0.44 0.327,-0.426 0.365,-0.4Z" style="fill:rgb(234,255,67);fill-rule:nonzero;"/>
        </g>
        <g transform="matrix(56.5036,0,0,56.5036,-28.5212,92.2655)">
            <path d="M0.009,-0.791L0.107,-0.007C0.108,0.004 0.122,0.004 0.123,-0.007C0.153,-0.246 0.183,-0.487 0.213,-0.726L0.302,-0.007C0.304,0.004 0.317,0.004 0.319,-0.007C0.349,-0.246 0.379,-0.487 0.408,-0.726L0.498,-0.007C0.499,0.004 0.513,0.004 0.514,-0.007C0.546,-0.263 0.578,-0.52 0.61,-0.776C0.611,-0.785 0.615,-0.799 0.604,-0.799L0.017,-0.799C0.012,-0.799 0.008,-0.796 0.009,-0.791ZM0.595,-0.783C0.565,-0.547 0.536,-0.308 0.506,-0.072C0.477,-0.308 0.447,-0.547 0.418,-0.783L0.595,-0.783ZM0.399,-0.783C0.37,-0.547 0.34,-0.308 0.311,-0.072L0.222,-0.783L0.399,-0.783ZM0.204,-0.783C0.174,-0.547 0.145,-0.308 0.115,-0.072C0.086,-0.308 0.056,-0.547 0.026,-0.783L0.204,-0.783Z" style="fill:rgb(234,255,67);fill-rule:nonzero;"/>
        </g>
        <g transform="matrix(56.5036,0,0,56.5036,-72.5298,93.2525)">
            <path d="M0.302,-0.783L0.302,-0.053L0.029,-0.783L0.302,-0.783ZM0.025,-0.016L0.025,-0.746C0.117,-0.503 0.208,-0.259 0.299,-0.016L0.025,-0.016ZM0.319,-0.008L0.319,-0.791C0.319,-0.796 0.315,-0.799 0.311,-0.799L0.017,-0.799C0.012,-0.799 0.009,-0.796 0.009,-0.791L0.009,-0.008C0.009,-0.003 0.013,-0 0.017,-0L0.311,-0C0.315,-0 0.319,-0.003 0.319,-0.008Z" style="fill:rgb(255,0,6);fill-rule:nonzero;"/>
        </g>
        <g transform="matrix(56.5036,0,0,56.5036,-53.5447,93.2525)">
            <path d="M0.408,-0.098C0.366,-0.046 0.305,-0.016 0.24,-0.016C0.223,-0.016 0.205,-0.019 0.187,-0.023C0.102,-0.043 0.04,-0.119 0.03,-0.205C0.029,-0.213 0.028,-0.222 0.028,-0.23C0.028,-0.291 0.057,-0.349 0.103,-0.389C0.113,-0.382 0.123,-0.375 0.135,-0.369C0.167,-0.351 0.202,-0.343 0.238,-0.343C0.29,-0.343 0.343,-0.361 0.385,-0.395C0.393,-0.401 0.384,-0.406 0.38,-0.409C0.338,-0.44 0.29,-0.456 0.241,-0.456C0.203,-0.456 0.166,-0.447 0.131,-0.429C0.121,-0.424 0.111,-0.417 0.102,-0.41C0.054,-0.451 0.029,-0.514 0.029,-0.577L0.029,-0.591C0.035,-0.678 0.1,-0.751 0.183,-0.776C0.202,-0.781 0.22,-0.784 0.239,-0.784C0.302,-0.784 0.363,-0.754 0.405,-0.705C0.412,-0.697 0.423,-0.709 0.417,-0.717C0.371,-0.77 0.306,-0.8 0.238,-0.8C0.218,-0.8 0.198,-0.797 0.178,-0.792C0.091,-0.768 0.023,-0.688 0.014,-0.598C0.013,-0.59 0.013,-0.581 0.013,-0.573C0.013,-0.506 0.041,-0.444 0.089,-0.4C0.04,-0.357 0.012,-0.291 0.012,-0.226C0.012,-0.216 0.013,-0.207 0.014,-0.198C0.025,-0.108 0.091,-0.036 0.175,-0.009C0.196,-0.002 0.218,0.001 0.239,0.001C0.308,0.001 0.376,-0.032 0.419,-0.086C0.426,-0.094 0.414,-0.106 0.408,-0.098ZM0.365,-0.4C0.328,-0.373 0.283,-0.361 0.239,-0.361C0.194,-0.361 0.15,-0.374 0.115,-0.399C0.123,-0.405 0.131,-0.41 0.139,-0.415C0.17,-0.432 0.204,-0.44 0.238,-0.44C0.283,-0.44 0.327,-0.426 0.365,-0.4Z" style="fill:rgb(255,0,6);fill-rule:nonzero;"/>
        </g>
        <g transform="matrix(56.5036,0,0,56.5036,-29.4741,93.2525)">
            <path d="M0.009,-0.791L0.107,-0.007C0.108,0.004 0.122,0.004 0.123,-0.007C0.153,-0.246 0.183,-0.487 0.213,-0.726L0.302,-0.007C0.304,0.004 0.317,0.004 0.319,-0.007C0.349,-0.246 0.379,-0.487 0.408,-0.726L0.498,-0.007C0.499,0.004 0.513,0.004 0.514,-0.007C0.546,-0.263 0.578,-0.52 0.61,-0.776C0.611,-0.785 0.615,-0.799 0.604,-0.799L0.017,-0.799C0.012,-0.799 0.008,-0.796 0.009,-0.791ZM0.595,-0.783C0.565,-0.547 0.536,-0.308 0.506,-0.072C0.477,-0.308 0.447,-0.547 0.418,-0.783L0.595,-0.783ZM0.399,-0.783C0.37,-0.547 0.34,-0.308 0.311,-0.072L0.222,-0.783L0.399,-0.783ZM0.204,-0.783C0.174,-0.547 0.145,-0.308 0.115,-0.072C0.086,-0.308 0.056,-0.547 0.026,-0.783L0.204,-0.783Z" style="fill:rgb(255,0,6);fill-rule:nonzero;"/>
        </g>
    </g>
</svg>
